<?xml version="1.0" standalone="no"?>
<!DOCTYPE svg PUBLIC "-//W3C//DTD SVG 20010904//EN"
 "http://www.w3.org/TR/2001/REC-SVG-20010904/DTD/svg10.dtd">
<svg version="1.0" xmlns="http://www.w3.org/2000/svg"
 width="725.000000pt" height="725.000000pt" viewBox="0 0 725.000000 725.000000"
 preserveAspectRatio="xMidYMid meet">
<metadata>
Created by potrace 1.14, written by Peter Selinger 2001-2017
</metadata>
<g transform="translate(0.000000,725.000000) scale(0.100000,-0.100000)"
fill="#000000" stroke="none">
<path d="M3364 7063 c5 -9 -5 -12 -36 -12 -51 0 -147 -10 -168 -18 -8 -3 -33
-7 -55 -9 -44 -5 -90 -11 -90 -14 0 -1 -9 -3 -20 -4 -11 -1 -38 -6 -60 -11
-22 -5 -43 -8 -47 -7 -5 1 -8 -2 -8 -8 0 -5 -6 -7 -13 -4 -15 5 -271 -63 -347
-93 -8 -3 -19 -7 -25 -8 -5 -2 -39 -14 -75 -28 -103 -40 -105 -40 -112 -39 -5
1 -8 -3 -8 -8 0 -6 -9 -10 -20 -10 -11 0 -20 -5 -20 -11 0 -5 -4 -8 -9 -4 -5
3 -13 0 -16 -6 -4 -5 -13 -8 -21 -5 -8 3 -14 1 -14 -3 0 -5 -14 -14 -32 -20
-17 -6 -41 -19 -52 -29 -14 -12 -17 -13 -11 -2 7 12 5 12 -11 -1 -17 -14 -103
-61 -171 -93 -13 -6 -23 -14 -23 -18 0 -5 -5 -8 -10 -8 -12 0 -138 -77 -158
-97 -6 -6 -21 -15 -32 -18 -11 -3 -20 -10 -20 -13 0 -4 -16 -16 -35 -26 -19
-11 -35 -23 -35 -28 0 -4 -5 -8 -11 -8 -7 0 -20 -10 -30 -22 -11 -11 -19 -17
-19 -12 0 5 -4 5 -8 -1 -4 -5 -29 -28 -57 -49 -27 -22 -57 -47 -66 -55 -9 -9
-35 -32 -59 -51 -86 -70 -370 -363 -370 -381 0 -5 -4 -9 -8 -9 -5 0 -15 -11
-22 -25 -7 -13 -17 -22 -22 -19 -4 3 -8 0 -8 -7 0 -7 -16 -31 -35 -55 -19 -23
-35 -47 -35 -54 0 -6 -4 -8 -10 -5 -6 3 -10 0 -10 -8 0 -7 -8 -22 -17 -33 -28
-32 -83 -114 -83 -124 0 -6 -4 -10 -8 -10 -5 0 -16 -15 -25 -32 -10 -18 -31
-55 -47 -83 -17 -27 -42 -72 -56 -100 -15 -27 -31 -53 -36 -56 -5 -3 -9 -9 -8
-13 0 -3 -18 -46 -41 -94 -23 -48 -42 -93 -42 -99 0 -7 -3 -13 -7 -13 -3 0
-12 -17 -19 -37 -7 -21 -19 -51 -26 -68 -27 -64 -40 -100 -37 -107 1 -5 -2 -8
-6 -8 -5 0 -9 -6 -10 -12 -1 -21 -7 -42 -13 -53 -4 -5 -10 -23 -14 -40 -12
-44 -12 -45 -15 -50 -1 -3 -3 -8 -4 -12 -5 -23 -39 -150 -44 -163 -3 -8 -6
-24 -7 -35 -2 -11 -10 -48 -18 -82 -8 -34 -12 -64 -9 -67 3 -3 1 -6 -4 -6 -5
0 -10 -12 -10 -27 -1 -16 -4 -46 -7 -68 -8 -48 -14 -95 -22 -150 -24 -185 -24
-556 0 -750 3 -22 7 -58 10 -80 2 -22 7 -56 11 -75 3 -19 7 -46 8 -60 1 -14 5
-31 9 -38 5 -6 6 -12 4 -12 -4 0 0 -21 19 -110 2 -14 8 -34 11 -45 4 -11 7
-27 8 -35 0 -8 3 -19 6 -25 4 -5 10 -28 14 -50 4 -22 10 -44 13 -50 7 -10 11
-28 14 -57 1 -10 5 -18 9 -18 4 0 10 -15 13 -32 16 -78 19 -88 25 -88 4 0 14
-23 21 -50 7 -28 18 -50 23 -50 6 0 8 -3 4 -6 -3 -4 3 -24 14 -45 11 -22 17
-39 14 -39 -2 0 4 -16 16 -36 11 -20 18 -39 15 -42 -3 -3 -1 -11 5 -18 9 -11
94 -172 133 -251 6 -13 15 -23 19 -23 5 0 5 -4 2 -10 -3 -5 -2 -10 3 -10 6 0
13 -11 16 -25 4 -14 11 -25 16 -25 6 0 10 -5 10 -10 0 -14 94 -157 128 -195 7
-8 10 -15 5 -15 -4 0 0 -5 10 -11 9 -5 17 -15 17 -21 0 -6 10 -19 22 -29 11
-11 18 -19 15 -19 -4 0 2 -10 12 -23 49 -56 58 -66 81 -97 64 -85 420 -444
420 -424 0 3 11 -7 25 -21 14 -14 30 -25 35 -25 6 0 10 -7 10 -16 0 -8 4 -13
9 -10 5 4 11 3 13 -1 4 -10 85 -73 92 -73 3 0 14 -7 24 -16 35 -31 111 -84
121 -84 6 0 11 -4 11 -10 0 -5 7 -10 15 -10 8 0 15 -4 15 -8 0 -5 18 -17 40
-27 22 -10 40 -22 40 -27 0 -5 5 -6 10 -3 6 3 10 1 10 -4 0 -6 7 -11 15 -11 9
0 18 -7 21 -15 4 -8 9 -13 13 -10 4 2 24 -7 43 -20 20 -13 38 -21 42 -18 3 4
6 1 6 -5 0 -7 9 -12 20 -12 11 0 20 -4 20 -8 0 -8 68 -42 84 -41 5 0 12 -3 15
-8 8 -11 172 -83 189 -83 6 0 12 -5 12 -10 0 -6 6 -10 13 -9 6 1 25 -3 40 -9
16 -7 33 -12 38 -12 5 0 9 -4 9 -8 0 -4 12 -9 26 -10 15 -1 32 -6 38 -10 9 -7
99 -36 116 -37 3 0 10 -3 15 -6 6 -3 33 -12 60 -18 28 -7 57 -16 65 -19 8 -3
22 -6 30 -6 8 -1 20 -4 25 -7 6 -4 18 -5 28 -4 9 2 17 -1 17 -6 0 -6 6 -9 13
-8 27 3 58 -1 54 -8 -3 -5 9 -8 26 -9 28 -1 82 -10 82 -14 0 -3 112 -12 162
-14 28 0 49 -4 47 -7 -6 -10 199 -22 381 -22 160 0 278 6 370 20 22 3 47 6 55
6 8 0 21 5 29 11 11 8 13 8 7 -1 -4 -7 -3 -13 3 -13 5 0 12 4 15 8 3 5 20 8
38 7 18 -2 38 0 43 4 6 3 12 6 15 6 41 6 169 32 173 35 2 2 18 5 60 13 15 3
54 13 85 23 31 9 64 18 72 19 8 1 22 5 30 8 29 12 105 38 122 42 9 2 25 8 35
13 10 6 23 11 28 11 36 6 54 15 48 25 -3 6 -3 8 2 4 7 -7 110 27 131 43 6 5
14 6 17 2 4 -3 7 -1 7 5 0 7 5 12 11 12 16 0 83 32 91 44 4 6 8 8 8 4 0 -9
172 81 181 95 4 5 12 6 18 3 6 -4 11 -3 11 2 0 5 13 15 30 22 16 7 28 16 25
19 -2 4 1 8 8 8 15 0 201 121 205 134 2 5 8 9 13 9 9 0 126 86 154 113 7 7 28
25 48 40 126 99 417 391 417 418 0 5 5 7 10 4 6 -3 10 -2 10 4 0 5 11 23 25
38 39 44 45 52 45 58 0 3 8 13 18 23 9 10 26 31 37 46 11 16 29 40 41 55 11
14 23 34 27 44 3 9 11 17 17 17 6 0 9 4 6 8 -3 5 8 24 25 43 16 19 29 40 29
47 0 7 7 15 15 18 8 4 13 10 10 14 -3 4 3 18 13 31 11 13 32 49 48 79 16 30
35 60 42 68 7 7 10 18 7 23 -4 5 -1 9 5 9 6 0 8 5 5 10 -3 6 -2 10 2 10 9 0
48 80 45 93 -1 4 3 7 8 7 6 0 10 9 10 20 0 11 3 20 8 20 8 0 58 121 54 133 -1
4 3 7 8 7 6 0 10 8 10 18 0 10 5 23 12 30 7 7 9 12 5 12 -4 0 1 17 11 38 10
20 29 71 41 112 12 41 25 82 29 90 3 8 6 20 7 25 0 6 4 16 8 23 5 6 6 16 2 21
-3 5 -1 12 4 15 5 3 12 23 16 43 5 21 9 43 11 48 21 73 53 245 47 245 -3 0 -1
6 4 13 5 6 9 31 8 54 0 22 3 39 7 37 4 -3 6 20 5 50 -1 30 1 52 6 49 4 -2 7
20 8 49 0 29 3 62 5 73 8 36 10 369 3 397 -4 15 -3 30 2 34 5 3 7 9 4 14 -3 5
-8 39 -11 77 -3 37 -7 84 -10 103 -2 19 -6 53 -9 75 -7 63 -14 108 -20 135 -3
14 -7 34 -9 45 -3 22 -19 107 -21 115 -9 33 -16 59 -19 75 -1 11 -5 27 -9 35
-10 27 -30 112 -30 126 0 8 -3 14 -7 14 -3 0 -12 24 -19 53 -8 28 -18 58 -24
65 -5 6 -7 12 -3 12 4 0 0 13 -9 29 -8 17 -16 38 -18 48 -2 10 -8 28 -15 39
-6 12 -8 24 -5 28 3 3 1 6 -5 6 -7 0 -12 6 -12 14 0 7 -8 31 -17 52 -9 22 -16
42 -15 47 1 4 -3 7 -9 7 -6 0 -9 5 -7 12 3 7 -3 20 -11 30 -9 10 -16 22 -16
26 0 14 -70 152 -77 152 -5 0 -8 7 -8 14 0 8 -13 35 -30 59 -16 25 -30 48 -30
52 0 3 -13 26 -30 50 -16 24 -30 46 -30 49 0 10 -84 131 -103 148 -10 9 -18
20 -18 25 0 4 -8 17 -17 28 -10 11 -28 36 -42 55 -28 41 -33 46 -63 81 -12 14
-40 47 -62 73 -48 57 -269 281 -311 316 -16 14 -59 51 -95 82 -37 32 -69 54
-73 51 -3 -3 -6 -1 -6 5 0 12 -171 138 -182 134 -5 -1 -8 3 -8 8 0 6 -11 15
-25 20 -14 5 -25 14 -25 20 0 5 -5 10 -10 10 -6 0 -46 23 -90 50 -44 28 -83
50 -86 50 -3 0 -19 9 -35 21 -16 11 -29 17 -29 13 0 -4 -8 0 -17 8 -26 21
-282 143 -323 152 -3 1 -16 8 -28 15 -13 7 -26 10 -29 7 -3 -3 -15 1 -27 9
-11 8 -28 15 -38 15 -10 0 -18 5 -18 11 0 6 -9 9 -20 6 -11 -3 -20 -1 -20 5 0
5 -4 7 -9 3 -5 -3 -12 -1 -16 5 -3 5 -17 10 -31 10 -13 0 -24 4 -24 8 0 5 -6
9 -12 10 -7 0 -22 3 -33 6 -126 34 -165 43 -169 38 -4 -3 -6 -1 -6 5 0 5 -6
10 -12 10 -25 2 -73 10 -88 16 -8 3 -33 8 -55 11 -22 3 -51 8 -65 11 -14 4
-41 8 -60 11 -19 2 -48 6 -65 8 -33 5 -92 12 -205 22 -93 9 -365 11 -443 4
-33 -4 -62 -1 -69 5 -8 7 -9 6 -4 -2z m187 -397 c18 11 59 12 59 1 0 -4 4 -5
10 -2 19 12 50 14 50 3 0 -6 7 -7 18 -3 9 4 22 7 27 6 6 0 44 -2 85 -4 41 -1
81 -6 88 -10 7 -5 12 -3 12 5 0 8 3 9 8 3 4 -5 21 -11 37 -11 70 -3 160 -16
163 -23 1 -4 16 -6 32 -5 17 1 30 -3 30 -9 0 -7 5 -5 10 3 5 8 10 10 10 5 0
-6 10 -11 23 -12 12 -1 32 -4 45 -7 12 -3 31 -8 42 -10 18 -4 131 -34 155 -41
6 -1 25 -6 43 -10 17 -4 32 -12 32 -17 0 -5 4 -7 10 -3 5 3 25 -1 45 -9 20 -9
39 -15 43 -14 4 0 23 -6 42 -14 35 -15 71 -30 80 -33 80 -28 379 -173 400
-195 3 -3 22 -14 43 -25 20 -11 37 -23 37 -27 0 -5 3 -7 8 -6 8 3 133 -80 143
-95 3 -5 9 -8 13 -7 4 1 21 -10 37 -24 16 -14 29 -23 29 -19 0 5 4 3 8 -2 4
-6 32 -30 62 -55 62 -51 95 -80 150 -130 21 -19 51 -47 67 -61 15 -14 62 -63
103 -108 41 -46 90 -98 108 -117 18 -19 29 -34 25 -34 -4 0 -1 -6 7 -13 8 -7
35 -39 60 -72 25 -33 47 -62 50 -65 3 -3 10 -12 15 -22 6 -9 31 -47 56 -85 25
-37 54 -84 65 -103 10 -19 21 -37 24 -40 3 -3 12 -18 20 -35 8 -16 17 -32 21
-35 9 -9 53 -105 51 -112 -1 -5 2 -8 7 -8 5 0 13 -10 17 -22 4 -13 20 -50 35
-83 37 -80 53 -118 54 -130 1 -5 7 -21 13 -35 19 -45 25 -65 23 -77 -1 -7 3
-13 9 -13 6 0 9 -4 5 -9 -3 -5 -1 -12 4 -15 4 -3 11 -24 15 -46 3 -22 10 -40
15 -40 5 0 7 -9 4 -20 -3 -11 -1 -20 5 -20 6 0 9 -8 7 -17 -1 -10 1 -22 5 -28
4 -5 8 -17 8 -25 0 -8 6 -35 12 -60 18 -69 23 -93 23 -117 1 -13 5 -23 9 -23
4 0 7 -10 7 -22 0 -13 2 -39 5 -58 6 -41 18 -127 21 -152 0 -10 4 -21 8 -24 4
-4 2 -13 -4 -21 -6 -7 -8 -13 -3 -13 5 0 10 -53 12 -118 2 -64 4 -143 5 -175
1 -31 0 -57 -3 -57 -3 0 -5 -37 -6 -83 -1 -80 -9 -177 -19 -227 -3 -14 -8 -47
-10 -74 -3 -27 -15 -92 -26 -145 -12 -53 -23 -103 -24 -111 -2 -8 -4 -15 -5
-15 -2 0 -9 -30 -14 -60 -2 -11 -6 -27 -9 -35 -12 -29 -49 -145 -51 -157 -1
-7 -5 -16 -9 -19 -4 -4 -7 -13 -7 -19 0 -7 -8 -30 -17 -51 -9 -22 -16 -42 -15
-46 1 -5 -2 -8 -6 -8 -5 0 -9 -6 -9 -12 0 -7 -9 -33 -21 -58 -11 -25 -22 -52
-24 -60 -2 -8 -6 -17 -9 -20 -5 -4 -63 -115 -113 -217 -6 -13 -14 -23 -18 -23
-5 0 -8 -5 -8 -11 0 -6 -14 -31 -30 -56 -17 -24 -30 -47 -30 -50 0 -8 -72
-107 -85 -115 -5 -4 -7 -8 -3 -8 8 0 -2 -13 -54 -75 -16 -18 -28 -35 -28 -39
0 -3 -8 -14 -17 -25 -10 -10 -34 -38 -53 -62 -19 -24 -56 -65 -82 -92 -46 -49
-46 -49 -82 -36 -20 7 -36 17 -36 22 0 4 -4 6 -8 3 -4 -2 -21 2 -37 9 -60 27
-173 75 -179 75 -3 0 -31 12 -63 27 -32 15 -61 27 -64 28 -3 0 -30 11 -60 24
-134 60 -171 75 -181 73 -5 -1 -8 3 -8 8 0 5 -3 9 -7 8 -5 -1 -19 3 -33 9 -14
6 -42 18 -63 26 -20 9 -40 16 -44 16 -3 -1 -9 3 -12 8 -5 8 -131 86 -198 123
-16 8 -34 23 -41 33 -7 9 -18 17 -24 17 -5 0 -27 13 -48 30 -21 17 -40 30 -44
30 -10 0 -96 64 -96 72 0 4 -4 8 -9 8 -12 0 -81 69 -81 81 0 5 -5 9 -11 9 -5
0 -8 4 -4 9 3 5 1 12 -5 16 -6 4 -8 10 -5 14 2 5 5 40 7 80 1 39 6 71 11 71 4
0 7 6 5 12 -4 22 33 168 43 168 5 0 9 9 9 19 0 11 5 21 11 23 5 2 11 11 12 20
2 9 7 22 13 29 5 8 19 32 29 54 11 22 23 42 26 45 3 3 12 23 19 45 7 22 17 46
23 53 5 6 6 12 2 12 -4 0 -2 6 4 13 6 8 8 17 4 20 -3 4 -2 7 4 7 5 0 16 19 22
43 7 23 17 47 21 52 13 18 60 172 87 290 9 41 12 50 14 50 1 0 3 11 4 25 1 14
5 34 9 45 5 11 12 31 16 45 4 14 12 34 16 45 4 11 8 22 9 25 10 32 29 96 29
100 1 3 5 11 9 18 5 6 5 17 2 22 -3 6 -2 10 2 10 5 0 10 12 11 26 1 15 9 49
16 75 8 27 15 53 15 57 1 4 7 15 15 24 35 40 52 93 34 104 -4 3 -6 9 -3 14 3
5 1 11 -5 15 -6 4 -8 11 -5 16 4 5 1 9 -5 9 -7 0 -10 7 -6 15 3 8 1 15 -5 15
-6 0 -9 7 -5 15 3 8 0 15 -5 15 -7 0 -9 11 -7 25 3 14 1 25 -4 25 -5 0 -7 4
-3 9 3 5 1 12 -4 16 -6 3 -8 12 -5 20 4 8 10 12 15 9 5 -3 6 2 3 10 -3 9 -11
13 -16 10 -6 -4 -5 2 1 14 8 15 8 22 -2 25 -7 3 -5 6 6 6 9 1 17 6 17 12 0 5
-6 7 -12 3 -10 -6 -10 -5 -1 8 7 8 9 19 5 23 -4 5 -1 5 6 1 8 -5 12 -1 12 11
0 11 5 24 12 31 7 7 8 12 3 12 -6 0 -3 5 5 11 13 9 13 10 0 6 -8 -2 -13 -11
-12 -18 2 -8 0 -11 -4 -6 -14 14 -11 45 3 40 8 -3 13 -2 12 3 -4 21 2 35 11
29 6 -3 10 4 10 17 0 19 2 20 11 8 9 -12 10 -11 6 7 -4 17 -1 20 12 16 13 -5
14 -3 4 7 -9 10 -10 17 -2 27 9 10 8 13 -2 13 -10 0 -10 3 -1 12 7 7 12 17 12
22 0 6 -5 4 -10 -4 -6 -9 -10 -10 -10 -3 0 6 4 14 9 17 5 3 11 15 14 26 3 11
1 18 -4 14 -5 -3 -9 0 -9 5 0 6 4 11 9 11 5 0 12 7 15 16 3 9 2 12 -5 9 -13
-9 -8 27 6 37 6 5 5 8 -4 8 -11 0 -11 3 0 17 12 14 12 16 -1 9 -8 -4 -7 -1 3
7 17 14 17 16 -7 41 -15 14 -26 32 -26 41 0 8 -5 15 -11 15 -8 0 -7 6 2 17 10
11 10 14 2 9 -8 -4 -13 -1 -13 9 0 9 -4 14 -9 11 -5 -3 -12 1 -15 10 -3 8 -11
12 -17 8 -8 -4 -9 1 -4 16 5 15 4 20 -4 16 -6 -4 -11 0 -11 9 0 9 -4 14 -8 11
-11 -7 -9 40 2 51 12 12 60 10 73 -3 7 -7 21 -10 32 -7 16 4 17 8 8 18 -7 7
-16 10 -22 7 -5 -3 -4 2 4 11 7 9 18 14 24 10 6 -3 7 -1 3 6 -6 9 -11 9 -22 0
-11 -9 -14 -9 -14 1 0 7 -6 10 -14 7 -9 -4 -22 5 -32 21 -13 21 -14 24 -2 14
13 -10 15 -8 14 17 -1 20 -4 26 -12 20 -19 -15 -25 3 -7 23 13 14 13 18 2 18
-11 0 -11 2 1 10 13 9 13 10 0 10 -13 0 -13 1 0 10 13 9 13 10 0 10 -13 0 -13
1 0 11 12 8 10 9 -9 4 -16 -5 -21 -4 -17 4 4 6 0 11 -9 11 -10 0 -13 -5 -9
-12 6 -10 4 -10 -7 -2 -8 6 -21 14 -29 18 -8 3 -5 4 8 2 12 -2 20 0 16 5 -3 5
-11 9 -19 9 -16 0 -28 27 -15 35 6 4 15 3 22 -1 7 -4 8 -3 4 4 -4 6 -2 21 5
33 8 15 8 19 0 15 -6 -4 -11 -3 -11 3 0 5 -8 11 -17 13 -15 3 -15 5 3 22 19
20 19 20 -1 12 -35 -13 -37 -12 -40 29 -2 34 -1 37 8 18 5 -13 14 -23 19 -23
5 0 2 10 -7 23 -8 13 -12 27 -8 31 5 4 4 7 -2 6 -21 -5 -36 0 -30 10 3 6 0 10
-8 10 -8 0 -17 10 -20 22 -5 17 -9 19 -20 10 -17 -14 -28 -6 -20 14 3 8 2 14
-3 13 -23 -4 -45 2 -39 11 5 9 -15 15 -38 11 -4 -1 -10 6 -13 14 -3 8 -10 12
-15 9 -5 -3 -9 0 -9 6 0 6 -4 8 -10 5 -5 -3 -10 -2 -10 4 0 5 -9 13 -20 16
-11 4 -18 11 -15 16 4 5 -5 5 -20 -1 -24 -9 -25 -9 -14 13 9 18 9 20 -1 10
-11 -10 -18 -7 -38 15 -13 15 -22 22 -18 15 4 -7 -1 -9 -15 -6 -16 4 -17 8 -7
14 10 7 8 9 -7 10 -11 1 -26 1 -34 0 -8 -2 -10 2 -5 11 6 10 5 10 -7 2 -11 -9
-19 -7 -34 9 l-20 20 20 -7 c16 -6 17 -5 8 5 -9 9 -10 16 -2 26 7 7 8 13 3 13
-5 0 -2 5 6 11 13 9 12 10 -2 5 -10 -3 -20 -1 -23 5 -4 5 -11 7 -16 3 -5 -3
-6 -10 -3 -16 5 -7 2 -9 -8 -5 -9 3 -24 0 -34 -8 -10 -7 -24 -11 -31 -8 -7 3
-13 1 -13 -5 0 -6 -9 -8 -20 -5 -11 3 -28 -1 -37 -8 -9 -8 -14 -9 -10 -3 8 14
-41 13 -62 0 -11 -7 -13 -5 -8 6 4 11 -1 16 -19 16 -13 0 -21 -4 -19 -9 3 -4
0 -11 -6 -15 -7 -4 -9 -3 -5 4 3 6 2 13 -4 17 -5 3 -10 1 -10 -5 0 -8 -6 -8
-20 0 -11 6 -20 7 -20 2 0 -11 -37 -9 -47 3 -5 4 -2 5 5 1 6 -4 12 -2 12 4 0
13 26 41 32 35 2 -2 4 5 5 16 1 11 -3 17 -8 13 -5 -3 -9 -2 -8 3 5 31 -4 34
-21 8 -11 -16 -20 -25 -20 -19 0 5 5 15 12 22 9 9 7 12 -12 13 -14 0 -20 3
-13 5 6 3 10 16 7 29 -3 16 3 28 17 38 14 11 17 17 9 22 -7 4 -15 4 -19 -1
-11 -16 -41 -15 -47 1 -4 8 0 23 7 33 12 15 12 16 -1 6 -17 -13 -52 -15 -44
-2 3 5 9 6 14 3 5 -3 11 -1 14 4 4 5 -2 8 -11 6 -10 -1 -24 2 -31 8 -10 8 -12
7 -10 -4 2 -8 -3 -13 -9 -11 -7 1 -13 -2 -13 -6 0 -5 -6 -9 -12 -10 -43 -3
-58 -7 -58 -15 0 -5 -7 -7 -15 -4 -8 4 -17 2 -20 -3 -3 -4 -13 -7 -23 -5 -9 1
-25 -2 -36 -7 -14 -8 -17 -7 -10 4 6 11 5 11 -8 0 -13 -10 -17 -10 -21 0 -4 9
-6 7 -6 -4 -1 -9 -6 -20 -13 -24 -8 -5 -9 -2 -5 9 6 16 4 16 -17 2 -12 -8 -26
-12 -29 -9 -4 4 -9 -1 -13 -10 -3 -9 -10 -16 -16 -16 -5 0 -6 6 -2 13 4 6 -2
4 -13 -6 -16 -14 -23 -15 -29 -6 -5 8 -3 10 6 4 8 -5 11 -4 7 2 -7 11 -78 -16
-72 -27 2 -3 -11 -6 -28 -6 -41 -2 -77 -14 -77 -25 0 -5 -5 -9 -11 -9 -5 0 -8
4 -4 9 3 6 -15 -2 -40 -15 -43 -25 -63 -32 -94 -33 -7 -1 -11 -7 -8 -15 4 -10
0 -14 -14 -11 -13 3 -35 -11 -65 -41 -25 -24 -50 -42 -54 -39 -5 3 -12 0 -15
-6 -4 -5 -14 -8 -22 -5 -8 3 -11 2 -8 -3 3 -5 -4 -12 -15 -16 -11 -3 -20 -13
-20 -20 0 -9 -6 -12 -15 -9 -9 4 -15 0 -15 -10 0 -9 -4 -16 -9 -16 -5 0 -12
-9 -16 -19 -3 -11 -12 -18 -19 -15 -8 3 -16 -4 -19 -17 -4 -13 -9 -20 -13 -16
-4 4 -13 -1 -21 -11 -8 -9 -11 -11 -7 -3 5 10 3 12 -5 7 -7 -5 -28 -8 -47 -8
-19 0 -34 -4 -34 -10 0 -5 5 -6 12 -2 7 5 8 3 3 -6 -7 -11 -10 -11 -19 2 -9
14 -11 14 -25 -1 -9 -9 -13 -12 -8 -5 4 7 1 14 -8 18 -9 3 -13 2 -10 -4 3 -6
-1 -7 -9 -4 -9 3 -13 11 -9 17 4 6 1 7 -6 3 -7 -5 -10 -13 -8 -20 3 -7 -4 -12
-17 -12 -13 0 -23 6 -23 13 0 8 4 10 12 3 8 -7 12 -5 12 4 0 8 -7 12 -16 11
-9 -2 -20 -4 -24 -4 -4 -1 -3 -9 2 -20 6 -10 7 -21 3 -25 -3 -4 2 -4 13 0 14
6 17 4 12 -9 -4 -10 -2 -14 7 -11 7 3 13 -2 13 -11 0 -9 -6 -14 -14 -11 -7 3
-12 2 -12 -2 3 -19 -2 -25 -11 -12 -9 13 -10 13 -10 0 0 -13 -1 -13 -10 0 -8
13 -10 13 -10 -1 0 -20 -27 -33 -34 -16 -2 7 -5 4 -5 -5 -1 -10 -9 -18 -18
-18 -15 0 -16 -2 -3 -10 14 -9 13 -11 -10 -14 -5 0 -9 -3 -7 -6 4 -10 -28 -38
-38 -33 -5 2 -1 -3 9 -11 17 -14 18 -16 3 -16 -9 0 -17 -5 -17 -11 0 -5 -4 -8
-9 -5 -5 3 -12 -1 -15 -10 -4 -9 -13 -14 -21 -10 -10 3 -15 -1 -15 -12 0 -14
-2 -15 -10 -2 -8 13 -10 13 -15 0 -3 -8 -17 -16 -32 -17 -15 0 -32 -9 -39 -18
-9 -12 -13 -13 -17 -3 -2 7 -8 10 -12 6 -4 -4 -2 -15 6 -24 13 -16 12 -16 -8
-5 -20 10 -22 9 -16 -6 6 -16 5 -17 -12 -3 -17 14 -18 14 -7 -6 9 -16 8 -21
-3 -21 -8 0 -11 5 -8 11 4 6 -3 3 -15 -7 -23 -21 -24 -63 -1 -79 10 -7 8 -8
-9 -5 -19 4 -21 3 -12 -8 13 -16 -5 -16 -30 0 -12 7 -13 6 -3 -7 7 -8 14 -28
15 -44 1 -16 5 -34 10 -40 5 -7 2 -14 -7 -18 -9 -3 -13 -2 -10 3 3 5 0 13 -7
17 -7 4 -10 4 -6 -1 4 -4 2 -15 -5 -23 -9 -13 -9 -14 1 -8 6 4 12 3 12 -3 0
-5 -8 -15 -17 -20 -10 -6 -13 -11 -7 -11 5 0 10 -11 10 -24 0 -14 -4 -22 -10
-19 -5 4 -7 -1 -3 -10 3 -10 2 -17 -2 -17 -5 0 -11 6 -14 13 -2 6 -4 -1 -3
-18 0 -16 8 -36 16 -43 11 -10 11 -12 1 -6 -11 5 -13 3 -8 -9 4 -10 1 -17 -6
-18 -9 0 -9 -2 1 -6 6 -2 12 -11 12 -19 0 -8 6 -14 13 -15 9 0 9 -2 -1 -6 -10
-4 -10 -8 0 -21 11 -13 11 -14 -2 -7 -10 6 -9 2 3 -12 14 -16 15 -23 6 -29 -7
-4 -10 -3 -6 3 4 6 0 13 -8 16 -12 5 -12 2 -3 -18 6 -13 14 -22 19 -20 4 3 5
-4 2 -15 -3 -11 -10 -17 -17 -13 -6 3 -7 2 -3 -3 5 -5 14 -9 20 -9 7 0 11 -8
11 -18 -1 -9 3 -14 9 -10 6 4 8 0 4 -11 -4 -11 -3 -15 4 -11 6 4 8 14 5 24 -5
12 -2 11 9 -3 15 -20 15 -20 16 0 0 17 1 16 9 -3 5 -13 12 -23 15 -23 4 0 3 5
-1 12 -4 7 -3 8 5 4 9 -6 9 -11 -1 -24 -11 -13 -11 -14 1 -8 9 6 12 5 9 -5 -3
-8 -11 -13 -17 -11 -7 1 -9 -3 -5 -9 3 -6 0 -15 -7 -20 -10 -6 -11 -9 -1 -9 6
0 12 -7 12 -15 0 -8 5 -15 11 -15 5 0 8 4 4 9 -3 5 -1 13 5 16 6 4 10 3 9 -2
-4 -21 2 -33 18 -33 15 0 15 -1 -2 -13 -14 -11 -15 -16 -5 -22 9 -5 11 -4 6 3
-4 7 -3 12 1 12 15 0 34 -38 22 -46 -8 -4 -7 -9 2 -15 11 -7 11 -9 -1 -9 -13
0 -13 -1 0 -10 9 -6 11 -10 3 -10 -7 0 -10 -7 -7 -15 4 -8 1 -15 -6 -15 -6 0
-8 -4 -5 -10 3 -6 1 -10 -5 -10 -7 0 -10 -7 -6 -15 3 -8 1 -15 -3 -15 -5 0
-12 -7 -15 -16 -4 -10 -2 -13 7 -8 9 5 9 4 -1 -7 -15 -17 -16 -43 0 -33 7 4 8
3 4 -4 -4 -6 -2 -20 4 -31 7 -13 7 -22 0 -26 -6 -4 -7 -11 -4 -17 4 -7 2 -8
-5 -4 -9 6 -9 11 0 22 19 23 4 16 -17 -8 -10 -12 -13 -18 -5 -13 11 6 13 2 9
-18 -3 -15 -2 -25 1 -22 4 2 7 -12 7 -31 0 -23 -5 -34 -15 -34 -12 0 -11 -3 3
-13 16 -12 16 -14 -2 -35 -10 -12 -23 -18 -28 -14 -4 4 -2 -1 5 -10 14 -19 26
-25 16 -9 -3 5 -1 12 4 15 12 8 8 -23 -5 -32 -10 -8 -12 -37 -2 -47 4 -4 3
-18 -2 -31 -8 -19 -6 -24 8 -25 11 0 12 -2 4 -6 -10 -4 -10 -8 0 -21 8 -10 8
-13 1 -9 -8 5 -8 1 0 -18 7 -14 16 -25 20 -25 5 0 5 -5 2 -10 -4 -6 1 -24 9
-41 14 -28 14 -30 -1 -25 -14 6 -14 4 -2 -10 7 -9 14 -23 15 -32 2 -8 8 -18
14 -22 9 -5 9 -9 1 -14 -6 -4 -11 -12 -11 -17 0 -6 5 -7 10 -4 6 3 10 1 10 -4
0 -6 -5 -11 -12 -11 -6 0 -3 -7 8 -16 10 -8 12 -12 4 -8 -11 6 -10 1 4 -21 54
-85 104 -144 133 -159 36 -17 85 -12 104 10 6 8 17 14 24 14 14 0 38 -26 41
-44 1 -6 18 -60 38 -120 33 -100 54 -206 57 -296 1 -19 5 -39 9 -45 6 -8 7
-415 2 -491 -2 -26 -50 -49 -87 -42 -14 3 -25 2 -25 -2 0 -4 -15 -10 -34 -13
-19 -3 -43 -14 -54 -24 -42 -39 -152 -113 -170 -113 -5 0 -17 -10 -29 -23 -49
-55 -126 -107 -159 -107 -7 0 -14 -4 -16 -9 -1 -5 -12 -11 -23 -13 -11 -1 -22
-5 -25 -8 -5 -5 -79 -42 -90 -45 -3 -1 -18 -7 -35 -14 -16 -7 -31 -12 -32 -12
-1 0 -35 -16 -75 -36 -40 -19 -77 -36 -83 -38 -15 -3 -69 -29 -75 -36 -3 -3
-29 -14 -57 -24 -29 -11 -53 -23 -53 -27 0 -4 -3 -7 -7 -6 -9 1 -31 -7 -126
-51 -37 -17 -69 -31 -72 -31 -3 0 -22 -9 -42 -20 -63 -34 -60 -35 -155 87 -27
34 -48 64 -48 68 0 3 -6 12 -13 20 -23 24 -47 55 -47 61 0 3 -18 32 -40 64
-22 32 -40 64 -40 69 0 6 -5 11 -12 11 -6 0 -8 3 -5 7 4 3 1 13 -7 22 -20 24
-116 211 -116 227 0 8 -4 14 -8 14 -4 0 -14 17 -22 37 -7 21 -19 53 -27 70 -7
18 -14 36 -14 40 0 5 -5 13 -10 19 -5 7 -12 20 -14 30 -3 11 -23 72 -45 136
-22 64 -42 127 -44 140 -3 13 -5 23 -6 23 -1 0 -3 11 -6 25 -2 14 -7 32 -10
40 -6 14 -9 29 -18 85 -2 11 -4 20 -6 20 -1 0 -4 11 -6 25 -2 14 -6 39 -9 55
-3 17 -8 47 -10 67 -2 20 -7 52 -11 70 -3 18 -7 51 -8 73 -1 22 -4 45 -7 50
-3 6 -5 44 -4 85 0 41 -4 78 -10 82 -6 5 -5 12 2 19 9 9 10 16 2 26 -7 7 -7
13 -2 13 5 0 9 9 9 20 0 11 -4 20 -7 20 -9 0 -6 41 5 58 4 7 2 12 -5 12 -10 0
-10 3 -1 12 8 8 9 15 1 25 -7 7 -8 13 -3 13 5 0 9 28 10 63 0 34 3 87 7 117 3
30 9 84 13 120 3 36 9 67 13 70 3 3 7 19 8 35 2 43 8 79 15 90 3 6 4 20 3 33
-1 12 3 22 8 22 6 0 8 3 5 6 -4 3 -2 20 4 37 9 31 17 69 20 95 1 6 5 12 10 12
5 0 6 5 3 10 -4 6 -1 17 5 25 7 8 10 15 6 15 -3 0 0 15 8 34 8 19 12 37 8 40
-3 3 0 6 6 6 7 0 11 3 10 8 -5 21 73 222 137 354 13 25 21 49 18 52 -4 3 -1 6
5 6 10 0 23 25 21 44 0 5 3 12 8 15 5 3 31 44 57 91 27 47 73 120 102 163 30
43 54 83 54 88 0 5 4 9 8 9 4 0 16 13 25 30 10 16 23 35 30 42 7 7 23 27 35
43 35 45 103 124 139 162 18 19 42 46 53 60 11 14 20 24 20 21 0 -2 35 30 78
72 104 99 152 142 182 161 14 9 35 26 47 38 12 11 25 21 28 21 4 0 14 7 22 16
23 23 251 174 262 174 5 0 16 6 23 13 26 23 215 122 301 156 31 13 57 28 57
33 0 5 4 7 9 4 5 -3 34 5 64 18 30 14 71 28 91 31 23 5 33 11 29 19 -3 6 -3 8
1 5 4 -4 35 2 69 13 34 11 70 21 80 24 9 2 27 7 40 10 12 3 31 7 42 7 11 1 22
5 25 9 5 7 60 20 88 21 6 0 12 3 12 7 0 3 16 6 35 5 19 -1 35 1 35 5 0 5 10 8
23 8 21 -1 82 8 137 18 36 7 113 14 203 17 42 2 80 7 84 11 4 3 10 1 14 -5 4
-7 12 -8 20 -3z m820 -823 c13 -16 12 -17 -3 -4 -10 7 -18 15 -18 17 0 8 8 3
21 -13z m-2165 -763 c0 -12 -4 -16 -9 -11 -5 5 -6 14 -3 20 10 15 12 14 12 -9z
m-11 -30 c3 -5 1 -10 -4 -10 -6 0 -11 5 -11 10 0 6 2 10 4 10 3 0 8 -4 11 -10z"/>
<path d="M4987 5121 c-3 -13 -1 -18 9 -14 7 2 10 11 7 19 -7 19 -10 18 -16 -5z"/>
<path d="M4925 5040 c-3 -5 -1 -10 4 -10 6 0 11 5 11 10 0 6 -2 10 -4 10 -3 0
-8 -4 -11 -10z"/>
<path d="M2116 4952 c-3 -5 1 -9 9 -9 8 0 12 4 9 9 -3 4 -7 8 -9 8 -2 0 -6 -4
-9 -8z"/>
<path d="M2243 4195 c0 -8 4 -12 9 -9 5 3 6 10 3 15 -9 13 -12 11 -12 -6z"/>
</g>
</svg>
